<?xml version="1.0" standalone="no"?>
<!DOCTYPE svg PUBLIC "-//W3C//DTD SVG 20010904//EN"
 "http://www.w3.org/TR/2001/REC-SVG-20010904/DTD/svg10.dtd">
<svg version="1.0" xmlns="http://www.w3.org/2000/svg"
 width="719.000000pt" height="1280.000000pt" viewBox="0 0 719.000000 1280.000000"
 preserveAspectRatio="xMidYMid meet">
<metadata>
Created by potrace 1.15, written by Peter Selinger 2001-2017
</metadata>
<g transform="translate(0.000000,1280.000000) scale(0.100000,-0.100000)"
fill="#000000" stroke="none">
<path d="M2016 12754 c-215 -55 -303 -85 -398 -133 -231 -115 -416 -310 -601
-629 -37 -64 -81 -135 -96 -157 -61 -86 -226 -384 -252 -455 -42 -117 -75
-248 -115 -460 -22 -119 -48 -224 -66 -270 -24 -59 -30 -90 -30 -145 1 -38
-10 -145 -23 -237 -39 -262 -30 -431 31 -622 36 -111 67 -170 111 -205 21 -17
63 -50 93 -74 116 -91 186 -208 197 -329 8 -85 0 -104 -62 -143 -55 -36 -80
-67 -72 -88 3 -7 48 -37 102 -67 159 -90 212 -149 203 -229 -2 -26 4 -34 62
-72 36 -23 113 -91 172 -150 59 -59 117 -110 130 -114 45 -14 155 -74 204
-110 84 -64 151 -134 324 -340 92 -110 195 -224 230 -254 73 -64 188 -141 209
-141 20 0 201 -185 201 -205 0 -9 -5 -25 -10 -36 -6 -10 -17 -69 -24 -130 -8
-61 -19 -116 -25 -122 -8 -8 -24 -5 -58 12 -31 15 -70 24 -109 26 -78 4 -188
59 -389 194 -77 52 -214 145 -305 206 -91 61 -216 137 -278 169 l-113 57 -54
-12 c-52 -12 -56 -11 -96 15 -22 15 -98 74 -167 130 -70 56 -153 121 -184 145
-32 24 -58 50 -58 59 0 8 -9 30 -21 49 -15 25 -19 43 -15 67 5 23 2 37 -9 46
-8 7 -28 36 -45 65 -17 29 -37 58 -45 65 -8 7 -15 22 -15 34 0 12 -18 51 -39
87 -21 36 -51 104 -66 152 -14 48 -37 100 -51 116 -29 35 -30 48 -4 76 23 24
25 49 15 169 -8 88 -8 89 -55 137 -26 27 -54 49 -63 49 -9 0 -18 12 -22 29 -9
42 -29 55 -72 48 -59 -10 -98 -56 -121 -146 -11 -42 -23 -94 -27 -116 -4 -22
-16 -62 -28 -89 l-20 -48 23 -67 c22 -63 22 -68 6 -98 -21 -41 -20 -46 3 -40
23 6 34 -17 51 -106 6 -32 40 -116 76 -188 35 -71 71 -153 81 -182 12 -36 32
-66 65 -99 26 -26 48 -51 48 -56 0 -5 -30 -3 -67 4 -94 18 -90 19 -107 -33
-46 -139 -41 -300 13 -462 39 -116 88 -212 212 -419 56 -92 113 -198 126 -237
54 -149 153 -253 317 -335 56 -28 106 -50 111 -50 6 0 15 -10 20 -22 6 -12 32
-37 58 -55 40 -29 63 -36 150 -48 112 -16 201 -33 472 -94 262 -58 352 -71
527 -78 154 -6 158 -6 153 -27 -77 -342 -130 -538 -152 -572 -5 -8 -65 31
-173 113 -180 135 -270 190 -370 223 -57 19 -71 21 -116 11 -47 -11 -58 -9
-120 14 -58 22 -95 28 -229 35 -268 15 -235 2 -358 146 -91 107 -105 127 -98
147 5 12 11 51 15 87 l6 65 -63 47 c-68 51 -130 72 -180 63 -31 -6 -37 -15
-87 -116 l-54 -110 29 -57 c21 -40 82 -110 206 -237 150 -154 181 -191 210
-252 30 -64 39 -74 81 -92 58 -26 144 -38 362 -50 l168 -10 57 -39 c55 -39 85
-49 261 -88 88 -19 105 -27 146 -65 16 -16 67 -45 113 -64 134 -55 134 -55
126 -128 -11 -100 -34 -198 -59 -253 l-24 -51 -83 -5 c-102 -6 -133 -20 -249
-118 -47 -40 -100 -80 -118 -89 -23 -10 -68 -61 -140 -156 -257 -340 -375
-463 -538 -555 l-55 -32 -34 36 c-27 30 -39 36 -71 36 -33 -1 -42 -6 -62 -36
-32 -50 -17 -101 45 -158 25 -22 65 -60 89 -83 40 -39 48 -43 95 -43 63 0 106
20 172 80 29 26 75 59 103 73 40 20 54 34 69 69 39 89 135 176 224 203 131 41
161 70 233 225 95 202 89 196 176 202 51 3 62 2 57 -10 -17 -45 -46 -229 -55
-349 -11 -155 -1 -421 25 -696 9 -89 17 -225 19 -302 3 -173 15 -207 89 -244
26 -13 51 -21 54 -17 3 3 -1 61 -11 128 -83 610 -81 1063 5 1403 36 141 29
133 185 204 215 98 447 170 627 195 34 4 38 3 31 -12 -37 -85 -47 -133 -47
-227 0 -85 5 -113 31 -191 l30 -90 -30 -61 c-26 -53 -31 -76 -35 -165 -6 -116
5 -186 42 -266 l25 -53 -50 -102 c-27 -56 -56 -132 -65 -168 -21 -82 -19 -86
94 -218 44 -51 83 -102 87 -113 3 -12 -14 -59 -47 -130 -44 -92 -54 -124 -59
-187 l-7 -76 86 -88 85 -87 -22 -38 c-52 -86 -103 -196 -117 -249 -18 -69 -12
-82 71 -145 31 -23 66 -57 79 -76 l23 -33 -32 -61 c-25 -50 -31 -73 -31 -123
0 -62 0 -63 -38 -87 l-39 -25 -52 21 c-45 18 -72 20 -236 20 -102 0 -281 -3
-398 -8 -207 -9 -214 -10 -224 -31 -8 -17 -22 -24 -58 -29 -63 -8 -161 -58
-199 -101 -44 -51 -80 -116 -108 -198 -23 -69 -24 -79 -18 -246 3 -102 10
-180 17 -188 6 -7 19 -13 30 -13 14 0 18 -5 14 -15 -3 -8 -1 -28 5 -43 6 -15
11 -44 11 -65 -1 -36 1 -38 23 -33 21 5 25 2 31 -31 9 -50 20 -63 55 -63 24 0
32 -7 46 -38 15 -31 32 -44 99 -77 45 -22 89 -46 97 -53 12 -10 25 -11 54 -4
94 24 90 24 97 -9 6 -30 8 -31 41 -25 50 10 72 0 79 -35 4 -20 33 -58 85 -110
44 -44 83 -88 86 -98 5 -15 19 -19 85 -23 66 -4 86 -9 122 -33 54 -37 111 -43
131 -15 13 19 15 19 27 5 38 -45 65 -50 275 -48 111 0 238 7 284 15 l85 13 8
35 c6 23 26 50 55 76 l47 41 41 -32 c49 -37 120 -59 167 -52 22 3 42 -1 58
-13 62 -42 120 -55 255 -55 158 0 189 12 288 113 58 58 69 65 85 55 83 -59
191 -80 252 -48 20 10 36 13 37 8 2 -6 10 -19 18 -29 12 -16 17 -17 34 -6 16
9 32 10 63 2 63 -14 128 -13 128 3 0 9 9 12 28 9 29 -4 142 34 142 48 0 5 16
6 35 3 33 -5 35 -4 35 21 0 19 5 26 19 26 28 0 75 43 95 88 16 34 21 38 48 34
28 -4 29 -3 19 16 -9 16 -7 22 12 35 14 9 33 45 52 97 40 111 67 140 133 140
27 0 78 9 113 19 35 10 81 22 101 25 23 4 35 11 33 19 -3 7 33 31 93 60 231
113 345 268 359 489 5 72 3 89 -9 93 -13 5 -13 11 -2 43 7 20 13 44 14 53 0
22 -143 193 -225 266 -79 71 -178 124 -280 150 -60 15 -121 17 -420 18 -192 0
-355 4 -362 8 -7 5 -44 -13 -95 -47 -120 -78 -120 -78 -181 -14 -29 30 -65 79
-81 109 l-29 55 31 65 c43 87 56 162 42 240 -14 78 -48 155 -89 201 -17 20
-31 41 -31 47 0 7 19 49 42 94 36 69 43 93 46 152 3 66 1 73 -34 130 -76 121
-86 146 -79 195 4 25 24 87 46 139 48 113 64 186 49 227 -6 16 -29 56 -50 89
-53 83 -55 98 -25 190 14 44 28 105 31 135 8 72 -10 192 -41 286 -24 72 -25
77 -10 122 26 76 36 189 26 303 -5 57 -7 106 -5 108 12 13 454 -43 726 -91
l128 -23 15 -38 c8 -21 27 -93 41 -160 28 -131 42 -171 75 -218 20 -29 20 -36
13 -243 -5 -157 -3 -227 6 -265 10 -44 10 -56 -4 -85 -21 -45 -20 -73 3 -86
13 -6 23 -29 31 -64 16 -76 45 -101 119 -101 156 1 327 179 307 321 -3 24 -11
53 -18 64 -18 28 -60 25 -96 -5 -25 -21 -50 -32 -53 -22 0 1 -4 76 -9 167 -6
116 -14 184 -28 227 -16 52 -17 64 -6 74 7 6 23 31 34 55 l22 44 -51 159 c-51
160 -121 314 -165 363 -13 14 -44 42 -70 61 -75 58 -145 68 -441 65 -181 -2
-266 1 -308 10 -31 8 -55 17 -52 21 2 5 28 11 56 15 70 10 178 36 479 116 372
100 637 150 789 150 40 0 48 5 90 49 44 48 50 51 151 75 278 67 447 220 506
456 9 36 22 72 29 80 8 8 27 41 44 74 24 44 31 71 31 113 0 45 5 60 30 91 39
49 76 134 91 212 11 56 10 69 -6 117 -18 51 -18 56 -2 83 23 39 21 55 -9 77
l-25 19 20 26 c26 33 26 44 -1 78 -13 15 -31 42 -40 59 -15 27 -22 31 -61 31
-50 0 -64 -11 -73 -60 -4 -20 -14 -35 -26 -37 -10 -3 -18 -6 -18 -7 0 0 7 -19
15 -41 20 -57 18 -102 -10 -211 -14 -53 -25 -111 -25 -129 0 -27 -5 -35 -30
-45 -26 -11 -30 -17 -30 -54 0 -22 -9 -70 -20 -104 -11 -35 -20 -87 -20 -115
0 -38 -7 -61 -29 -96 -16 -25 -48 -85 -71 -132 l-43 -85 -61 -1 c-85 -1 -137
-17 -236 -73 -111 -62 -166 -80 -246 -80 -61 0 -84 -8 -303 -99 -381 -161
-515 -198 -746 -207 -111 -4 -155 -11 -213 -30 -82 -27 -101 -29 -125 -11 -16
11 -16 15 2 67 30 86 57 199 96 410 20 107 43 222 51 255 l15 60 292 1 c307 2
451 11 657 45 205 34 264 53 309 102 25 27 73 59 132 89 86 42 97 51 127 101
58 96 132 309 132 380 0 10 20 42 45 70 25 28 76 112 114 187 39 75 79 144 91
155 15 13 20 30 20 66 0 27 9 72 21 101 15 37 19 65 15 94 -4 33 -1 45 14 59
26 24 25 43 -4 70 -16 15 -29 46 -41 100 -26 118 -31 125 -80 125 -28 0 -47 6
-58 18 -15 17 -14 21 14 62 39 59 69 158 69 228 0 38 7 71 23 101 21 43 22 59
23 266 l0 220 -42 125 c-23 69 -53 151 -67 183 -24 53 -28 57 -59 57 -18 0
-55 7 -82 15 -85 26 -90 23 -111 -50 -21 -75 -55 -116 -80 -95 -23 19 -18 72
16 157 24 61 30 87 25 120 -5 36 -2 47 20 70 53 56 84 143 99 270 10 95 -15
286 -75 553 -12 52 -25 142 -29 200 -7 89 -15 121 -51 210 -279 697 -563 1116
-1030 1522 -41 36 -144 122 -228 190 -141 116 -162 129 -285 183 -72 31 -231
106 -352 166 -121 59 -246 115 -278 123 -308 80 -581 11 -681 -173 -26 -48
-27 -54 -13 -75 8 -12 30 -27 49 -32 33 -10 33 -10 45 -100 14 -107 45 -193
104 -295 91 -156 138 -261 145 -323 7 -57 8 -59 22 -38 8 12 20 22 27 22 20 0
448 -653 687 -1049 l99 -164 -26 -27 c-46 -48 -33 -75 60 -132 110 -68 115
-73 105 -108 -5 -16 -6 -38 -3 -48 2 -11 45 -55 94 -98 102 -89 146 -140 178
-202 16 -32 41 -55 101 -95 44 -28 80 -59 80 -68 0 -9 5 -30 11 -47 9 -26 19
-34 67 -47 75 -22 193 -78 320 -152 l103 -61 -30 -21 c-43 -31 -133 -70 -296
-130 -77 -28 -161 -61 -186 -72 -45 -20 -47 -24 -53 -71 -4 -27 -16 -73 -26
-101 -20 -54 -73 -127 -92 -127 -6 0 -33 20 -59 45 -30 28 -57 45 -73 45 -54
0 -114 -116 -131 -253 -7 -53 -12 -61 -77 -129 -38 -40 -76 -85 -84 -100 -10
-19 -22 -28 -39 -28 -14 0 -41 -15 -64 -35 -41 -37 -51 -42 -51 -24 0 6 -20
40 -45 74 l-44 63 9 58 c22 131 6 255 -35 270 -18 7 -55 -22 -55 -43 0 -8 -4
-11 -10 -8 -5 3 -10 41 -11 83 0 83 -15 139 -40 155 -25 16 -63 1 -82 -33 -23
-37 -37 -39 -37 -2 0 28 -32 155 -51 204 -8 20 -6 43 11 105 39 142 101 306
166 439 35 72 64 143 64 160 0 57 31 150 100 294 38 80 73 163 79 185 14 53
14 158 0 189 -12 26 -61 52 -78 41 -7 -4 -11 -46 -10 -110 1 -92 -1 -107 -20
-134 -42 -58 -90 -177 -147 -361 -72 -236 -106 -323 -150 -391 l-35 -54 7 40
c9 60 49 222 94 385 53 188 80 348 80 470 l0 97 -94 91 c-52 50 -118 106 -148
125 l-53 35 -48 153 c-82 260 -185 508 -385 925 -60 126 -113 240 -117 254
-16 52 -65 138 -116 203 -47 58 -58 67 -87 67 -32 0 -102 -24 -102 -35 0 -3
62 -128 138 -278 205 -403 364 -765 470 -1069 39 -110 40 -118 22 -118 -14 0
-20 -7 -20 -21 0 -29 17 -57 65 -109 34 -37 46 -61 64 -128 42 -155 69 -377
86 -692 3 -63 8 -125 11 -137 3 -15 0 -23 -9 -23 -9 0 -11 -19 -9 -76 5 -98
-10 -194 -60 -369 -22 -77 -43 -158 -47 -180 -4 -22 -12 -39 -19 -38 -6 2 -20
-9 -32 -24 -11 -14 -22 -24 -24 -22 -2 2 -12 40 -23 84 -16 71 -18 131 -19
555 0 415 -3 485 -18 555 -31 141 -73 229 -143 299 -36 36 -115 96 -127 96
-10 0 6 -64 22 -90 8 -14 39 -48 67 -77 60 -59 78 -102 95 -226 11 -85 12
-271 1 -382 -8 -79 -7 -81 -46 105 -42 199 -101 301 -203 351 -40 20 -63 23
-152 24 -95 0 -108 -2 -134 -22 -16 -13 -35 -23 -42 -23 -13 0 -54 -46 -54
-61 0 -15 53 -10 146 12 128 30 186 13 240 -72 56 -89 131 -399 119 -496 -5
-44 -3 -59 18 -95 20 -35 26 -62 31 -151 6 -89 15 -132 52 -250 30 -94 47
-168 51 -219 6 -73 4 -82 -27 -144 -27 -55 -31 -72 -25 -103 4 -20 9 -51 10
-69 3 -43 10 -48 40 -28 20 13 25 24 25 61 0 24 5 47 11 51 9 5 10 -7 5 -47
-17 -132 -17 -133 -72 -98 -39 24 -54 47 -54 84 0 45 -26 91 -94 165 -52 56
-66 78 -66 103 -1 49 -32 106 -96 175 l-59 63 -132 2 c-126 2 -133 1 -144 -19
-7 -13 -8 -38 -4 -61 5 -30 2 -43 -10 -53 -9 -7 -23 -26 -31 -42 -8 -16 -26
-33 -39 -38 -15 -6 -27 -20 -31 -37 -3 -15 -31 -116 -61 -223 -74 -263 -83
-307 -83 -435 0 -105 -7 -135 -32 -135 -5 0 -28 31 -53 70 -32 51 -56 75 -86
91 -59 30 -142 111 -188 184 -22 34 -71 126 -111 205 -98 196 -110 212 -174
249 -40 22 -73 54 -116 109 -121 153 -139 172 -169 172 -36 0 -89 18 -124 42
-47 33 -84 123 -107 258 -6 36 -13 77 -16 91 -5 25 -1 28 58 48 77 25 174 47
250 56 51 6 59 10 77 40 24 41 77 81 176 132 41 21 76 46 78 55 3 10 -4 29
-15 43 -10 14 -16 29 -13 35 10 16 85 52 135 65 l45 11 3 61 3 60 92 94 c99
100 194 233 258 361 45 89 48 113 18 144 l-21 23 75 103 c149 205 252 411 304
609 24 92 27 122 27 259 1 284 -65 460 -197 530 l-43 23 23 23 c36 36 30 66
-27 123 -67 67 -141 100 -368 166 -106 30 -210 64 -232 75 -21 11 -45 20 -52
19 -7 0 -89 -20 -182 -45z m1818 -413 c16 -11 68 -59 115 -108 47 -49 100 -95
118 -102 33 -14 73 -74 73 -112 0 -19 -1 -19 -22 -5 -12 9 -30 16 -38 16 -9 0
-35 27 -59 61 -24 33 -88 108 -143 165 -95 98 -110 129 -44 85z m-1121 -63
c-23 -80 -59 -150 -93 -183 -16 -16 -31 -27 -34 -24 -2 2 -6 29 -9 59 l-5 56
53 28 c50 26 85 69 85 105 0 6 4 11 9 11 6 0 3 -24 -6 -52z m-216 -294 c-8
-27 -8 -40 2 -55 11 -18 8 -22 -29 -36 -36 -15 -40 -19 -40 -52 0 -28 -54
-163 -77 -190 -1 -2 -12 4 -23 14 -19 17 -19 18 4 59 13 22 34 73 46 111 30
91 47 124 83 157 39 37 47 35 34 -8z m1753 -64 c45 -37 104 -108 146 -175 18
-28 16 -27 -41 14 -84 61 -124 100 -146 143 -36 69 -26 74 41 18z m-1984 -286
c-3 -9 -9 -34 -12 -57 -11 -68 -23 -77 -18 -12 7 73 10 85 25 85 6 0 8 -7 5
-16z m2534 -334 c0 -5 -4 -10 -10 -10 -5 0 -10 5 -10 10 0 6 5 10 10 10 6 0
10 -4 10 -10z m-747 -1447 c-7 -2 -19 -2 -25 0 -7 3 -2 5 12 5 14 0 19 -2 13
-5z m-885 -973 c22 -14 41 -39 58 -76 13 -30 24 -57 24 -59 0 -3 -23 6 -51 20
-28 15 -60 25 -72 23 -42 -6 -40 -91 3 -181 11 -22 20 -49 20 -58 0 -41 -70
-206 -163 -389 -55 -107 -110 -220 -123 -250 l-23 -55 -1 43 c0 24 13 105 30
180 16 75 34 193 39 262 10 130 17 158 51 200 13 16 29 69 44 146 40 200 78
246 164 194z m3248 -114 c-11 -77 -10 -85 20 -166 33 -90 35 -188 10 -422 -9
-81 -16 -173 -16 -205 l-1 -58 -51 -35 c-28 -19 -108 -89 -177 -156 -119 -114
-129 -121 -176 -128 -76 -10 -146 -49 -242 -138 -98 -90 -137 -117 -204 -142
-25 -10 -90 -51 -145 -93 -54 -41 -124 -91 -154 -111 -115 -74 -267 -132 -347
-132 -39 0 -38 -3 -52 160 -5 63 -17 135 -26 160 -9 25 -13 55 -10 67 8 35
122 143 215 205 47 31 108 80 135 108 28 29 101 97 163 152 109 97 188 187
213 242 7 14 58 62 115 106 57 45 130 105 163 135 32 30 66 55 74 55 8 0 45
16 81 35 37 19 72 35 80 35 8 0 20 25 30 63 22 79 59 127 171 220 50 40 96 81
104 90 23 28 34 8 27 -47z m-2042 -96 c11 -12 7 -25 -20 -77 l-33 -63 -7 48
c-4 26 -10 56 -15 67 -8 19 -8 19 -15 -2 -7 -27 -19 -30 -28 -7 -8 20 10 54
28 54 8 0 24 9 37 19 24 19 24 19 32 -2 4 -12 14 -28 21 -37z m-14 -190 c0 -5
-2 -10 -4 -10 -3 0 -8 5 -11 10 -3 6 -1 10 4 10 6 0 11 -4 11 -10z m806 -77
c28 -30 39 -63 30 -95 -8 -34 -195 -245 -246 -279 -53 -36 -80 -43 -123 -35
-63 12 -63 14 -22 122 85 221 129 276 242 303 68 16 92 13 119 -16z m-3024
-15 c9 -7 21 -29 27 -48 6 -20 31 -56 55 -81 44 -44 44 -44 33 -87 -9 -34 -8
-53 5 -100 8 -31 17 -63 19 -71 3 -11 -10 -14 -60 -14 l-64 1 -47 63 c-49 67
-95 108 -171 152 l-46 27 -1 78 -2 79 27 -4 c16 -2 46 0 68 5 58 14 139 14
157 0z m-1753 -682 c-16 -17 -82 -56 -86 -52 -3 3 -3 17 1 31 6 22 12 25 48
25 23 0 39 -2 37 -4z m61 0 c0 -2 3 -11 6 -20 4 -12 0 -16 -15 -16 -14 0 -21
6 -21 20 0 11 7 20 15 20 8 0 15 -2 15 -4z m170 -221 c104 -139 140 -164 313
-224 146 -50 192 -74 243 -122 29 -29 58 -44 105 -58 169 -48 364 -143 669
-326 139 -83 392 -212 455 -232 l29 -9 -3 -100 c-1 -54 -4 -100 -6 -102 -2 -2
-28 -10 -59 -18 -144 -38 -372 -33 -551 10 -60 15 -218 62 -351 105 -132 43
-281 89 -330 101 -85 22 -92 25 -151 85 -45 46 -71 64 -99 69 -60 12 -130 91
-191 216 -28 58 -66 128 -85 156 -25 37 -37 67 -42 108 -3 32 -23 108 -43 169
-37 113 -53 236 -39 293 l7 27 31 -29 c17 -16 61 -69 98 -119z m5835 -55 c-3
-5 2 -38 11 -72 34 -131 6 -204 -139 -370 -116 -132 -158 -198 -186 -289 -36
-118 -51 -156 -69 -171 -21 -19 -477 -94 -655 -108 -155 -12 -295 0 -408 36
-43 13 -81 29 -84 33 -8 14 43 69 90 96 23 14 110 52 193 84 214 82 421 198
692 385 215 149 309 224 330 265 15 30 27 40 52 45 18 3 58 21 88 40 53 33 98
47 85 26z m-3872 -1592 c6 -128 31 -260 81 -420 l14 -46 -67 -30 c-82 -37
-179 -56 -235 -47 -22 4 -44 9 -48 11 -4 3 4 37 18 77 31 92 107 365 134 483
20 87 23 92 53 101 18 5 35 8 38 7 3 -2 9 -63 12 -136z m188 -808 c10 -14 21
-41 24 -60 l6 -35 -193 -69 c-194 -69 -422 -135 -432 -126 -3 3 12 71 32 150
l37 145 50 -2 c285 -9 361 -7 395 9 44 21 59 19 81 -12z"/>
</g>
</svg>
