<?xml version="1.0" encoding="iso-8859-1"?>
<!-- Generator: Adobe Illustrator 18.0.0, SVG Export Plug-In . SVG Version: 6.00 Build 0)  -->
<!DOCTYPE svg PUBLIC "-//W3C//DTD SVG 1.1//EN" "http://www.w3.org/Graphics/SVG/1.1/DTD/svg11.dtd">
<svg version="1.1" id="Capa_1" xmlns="http://www.w3.org/2000/svg" xmlns:xlink="http://www.w3.org/1999/xlink" x="0px" y="0px"
	 viewBox="0 0 314.758 314.758" style="enable-background:new 0 0 314.758 314.758;" xml:space="preserve">
<g>
	<path d="M118.621,60.071c0.511,2.923,4.454,25.464,4.963,28.373h18.076c1.87-10.688,3.059-17.489,4.963-28.373
		C143.676,60.071,121.547,60.071,118.621,60.071z"/>
	<path d="M235.606,78.358c-4.913-4.355-12.425-4.188-17.124,0.523l-21.239,21.294l-1.518-11.562
		c-0.552-15.818-13.632-28.542-29.563-28.542h-9.386c-2.625,15.003-1.552,8.874-5.384,30.781l14.12,56.824V89.643
		c0-1.442,1.167-2.612,2.609-2.616c1.442-0.004,2.444,1.094,2.621,2.526c1.232,9.952,1.325,10.711,5.021,39.059
		c0.62,4.723,3.87,8.683,8.381,10.212c4.494,1.522,9.487,0.373,12.863-3.012l16.127-16.168
		C216.147,104.758,221.983,85.246,235.606,78.358z"/>
	<path d="M99.306,299.758c0,8.284,6.716,15,15,15s15-6.716,15-15v-90.147h-30V299.758z"/>
	<path d="M135.782,299.758c0,8.284,6.716,15,15,15c8.284,0,15-6.716,15-15v-90.147h-30V299.758z"/>
	<circle cx="132.541" cy="25.907" r="25.906"/>
	<path d="M293.508,173.613c-6.341-7.809-15.01-15.115-23.235-20.61c-2.224-37.329-10.836-65.08-24.577-65.08
		c-16.092,0-25.157,38.047-25.157,84.979c0,25.239,7.275,47.906,14,63.469c2.063,4.774,0.601,10.348-3.548,13.483
		c-9.337,7.057-15.658,20.623-15.658,36.208c0,0.036,0,0.073,0,0.109c0.003,1.622,1.091,3.041,2.656,3.466
		c0.313,0.085,0.63,0.126,0.943,0.126c1.252,0,2.442-0.655,3.102-1.773c5.564-9.427,14.096-15.46,23.663-15.46
		c9.567,0,18.099,6.033,23.663,15.46c0.659,1.116,1.849,1.77,3.099,1.77c0.313,0,0.63-0.041,0.944-0.126
		c1.564-0.425,2.654-1.843,2.658-3.464c0-0.036,0-0.073,0-0.109c0-15.585-6.321-29.151-15.659-36.208
		c-4.156-3.141-5.614-8.701-3.548-13.483c5.94-13.747,12.301-33.04,13.706-54.748c5.94-0.734,12.191-0.449,18.108,0.451
		c2.134,0.325,4.249-0.698,5.321-2.572C295.059,177.628,294.869,175.288,293.508,173.613z M246.424,108.057
		c0-2.071,1.679-3.75,3.75-3.75c2.071,0,3.75,1.679,3.75,3.75c0,2.071-1.679,3.75-3.75,3.75
		C248.103,111.807,246.424,110.128,246.424,108.057z"/>
	<path d="M96.418,158.789c-0.736-0.585-1.554-1.038-2.418-1.354l0.34-67.806c0.007-1.368,1.119-2.472,2.487-2.468
		c1.367,0.004,2.473,1.113,2.473,2.48v58.034l14.494-57.173c-3.714-21.233-2.58-14.751-5.323-30.432h-9.549
		c-16.23,0-29.5,13.204-29.581,29.434l-0.461,91.832c-0.004,0.746,0.07,1.473,0.192,2.183l-11.839,18.288
		c-1.542,1.32-11.745,10.21-21.791,22.837c-9.481,11.916-14.251,24.378-15.333,27.422c-0.056,0.157-0.028,0.332,0.072,0.464
		c0.101,0.133,0.262,0.206,0.428,0.194c3.912-0.271,22.34-2.178,32.051-14.383c3.931-4.94,9.568-12.024,13.476-16.936
		c2.586-3.249,2.41-7.885-0.424-10.92l-3.015-3.228l13.878-14.324c1.461,0.609,3.06,0.954,4.741,0.963c0.021,0,0.042,0,0.063,0
		c6.874,0,12.464-5.556,12.499-12.438l0.032-6.417l3.338-3.445C100.838,167.906,100.364,161.928,96.418,158.789z"/>
</g>
<g>
</g>
<g>
</g>
<g>
</g>
<g>
</g>
<g>
</g>
<g>
</g>
<g>
</g>
<g>
</g>
<g>
</g>
<g>
</g>
<g>
</g>
<g>
</g>
<g>
</g>
<g>
</g>
<g>
</g>
</svg>
